<svg id="Calendar-icon" xmlns="http://www.w3.org/2000/svg" xmlns:xlink="http://www.w3.org/1999/xlink" width="20" height="20" viewBox="0 0 20 20">
  <defs>
    <clipPath id="clip-path">
      <rect id="Rectangle_611" data-name="Rectangle 611" width="20" height="20" fill="#707070"/>
    </clipPath>
  </defs>
  <g id="Group_13" data-name="Group 13" clip-path="url(#clip-path)">
    <path id="Path_40" data-name="Path 40" d="M17.656,1.563h-.937V0H15.156V1.563H4.844V0H3.281V1.563H2.344A2.346,2.346,0,0,0,0,3.906v13.75A2.346,2.346,0,0,0,2.344,20H17.656A2.346,2.346,0,0,0,20,17.656V3.906a2.346,2.346,0,0,0-2.344-2.343m.781,16.093a.782.782,0,0,1-.781.781H2.344a.782.782,0,0,1-.781-.781V7.344H18.438Zm0-11.875H1.562V3.906a.782.782,0,0,1,.781-.781h.938V4.688H4.844V3.125H15.156V4.688h1.563V3.125h.937a.782.782,0,0,1,.781.781Z" fill="#707070"/>
    <path id="Path_41" data-name="Path 41" d="M6.234,18.867H7.8v1.562H6.234Zm3.125,0h1.562v1.562H9.359Zm3.125,0h1.562v1.562H12.484Zm3.125,0h1.562v1.562H15.609Zm3.125,0H20.3v1.562H18.734Zm-12.5,3.125H7.8v1.562H6.234Zm3.125,0h1.562v1.562H9.359Zm3.125,0h1.562v1.562H12.484Zm3.125,0h1.562v1.562H15.609ZM6.234,25.117H7.8v1.562H6.234Zm3.125,0h1.562v1.562H9.359Zm3.125,0h1.562v1.562H12.484Zm3.125,0h1.562v1.562H15.609Zm3.125-3.125H20.3v1.562H18.734Z" transform="translate(-3.265 -9.883)" fill="#707070"/>
  </g>
</svg>
